<?xml version="1.0" encoding="UTF-8"?>
<svg width="504px" height="92px"  viewBox="0 0 504 92" version="1.1" xmlns="http://www.w3.org/2000/svg" xmlns:xlink="http://www.w3.org/1999/xlink">
    <!-- Generator: Sketch 48 (47235) - http://www.bohemiancoding.com/sketch -->
    <title>Artboard</title>
    <desc>Created with Sketch.</desc>
    <defs></defs>
    <g id="Logo" stroke="none" stroke-width="1" fill="none" fill-rule="evenodd">
        <g id="Artboard">
            <g id="Group-6" transform="translate(3.000000, 0.000000)">
                <g id="Group-5" transform="translate(0.000000, 7.000000)">
                    <g id="Group-4" transform="translate(0.000000, 11.563636)">
                        <path d="M59.5169315,20.6961039 L32.8219817,1.87386643 C31.2060644,0.73450563 29.0705096,0.654389074 27.3737671,1.66947355 L3.54113768,15.9274598 C0.697469041,17.6286983 -0.228653518,21.3130736 1.47258505,24.1567423 C1.90930406,24.8867305 2.49625322,25.5155128 3.19449549,26.0013771 L59.5169315,65.1927273" id="Path-2" stroke="#F55247" stroke-width="7"></path>
                        <ellipse id="Oval" fill="#F55247" cx="63.1860055" cy="21.2135065" rx="6.81399454" ry="6.72623377"></ellipse>
                        <ellipse id="Oval-Copy" fill="#F55247" cx="63.1860055" cy="65.7101299" rx="6.81399454" ry="6.72623377"></ellipse>
                    </g>
                    <g id="Group-4-Copy" transform="translate(35.000000, 36.936364) scale(1, -1) translate(-35.000000, -36.936364) translate(0.000000, 0.436364)">
                        <path d="M59.5169315,20.6961039 L32.8219817,1.87386643 C31.2060644,0.73450563 29.0705096,0.654389074 27.3737671,1.66947355 L3.54113768,15.9274598 C0.697469041,17.6286983 -0.228653518,21.3130736 1.47258505,24.1567423 C1.90930406,24.8867305 2.49625322,25.5155128 3.19449549,26.0013771 L59.5169315,65.1927273" id="Path-2" stroke="#021926" stroke-width="7"></path>
                        <ellipse id="Oval" fill="#021926" cx="63.1860055" cy="21.2135065" rx="6.81399454" ry="6.72623377"></ellipse>
                        <ellipse id="Oval-Copy" fill="#021926" cx="63.1860055" cy="65.7101299" rx="6.81399454" ry="6.72623377"></ellipse>
                    </g>
                </g>
                <path d="M130.453427,58.3625 L130.453427,57.5770833 C130.453427,52.381224 128.76393,47.9305741 125.384886,44.225 C122.046068,40.5597039 118.003343,38.7270833 113.256591,38.7270833 L97.5079086,38.7270833 L97.5079086,77.1520833 L113.256591,77.1520833 C117.92289,77.1520833 121.925389,75.3597401 125.264206,71.775 C128.723704,68.0694259 130.453427,63.5986373 130.453427,58.3625 Z M119.109549,20.0583333 L119.109549,19.575 C119.109549,16.9166534 118.003331,14.6611204 115.790861,12.8083333 C113.578392,10.9152683 110.903355,9.96875 107.765671,9.96875 L97.5079086,9.96875 L97.5079086,29.6645833 L107.765671,29.6645833 C110.903355,29.6645833 113.578392,28.718065 115.790861,26.825 C118.003331,24.931935 119.109549,22.676402 119.109549,20.0583333 Z M127.557118,20.0583333 C127.557118,24.650023 125.887734,28.6576218 122.548916,32.08125 C127.376123,34.095149 131.298169,37.3978937 134.315173,41.9895833 C137.372403,46.6618289 138.900996,51.8576103 138.900996,57.5770833 L138.900996,58.3625 C138.900996,65.8139261 136.447203,72.2180288 131.539543,77.575 C126.511203,82.9722492 120.416947,85.6708333 113.256591,85.6708333 L93.2237844,85.6708333 C92.0572096,85.6708333 91.0716697,85.2479209 90.2671353,84.4020833 C89.4223742,83.5965238 89,82.6097281 89,81.4416667 L89,5.67916667 C89,4.51110527 89.4223742,3.52430958 90.2671353,2.71875 C91.0716697,1.87291244 92.0572096,1.45 93.2237844,1.45 L108.972466,1.45 C109.254053,1.45 109.555749,1.49027738 109.877563,1.57083333 C114.865676,2.05416908 119.049192,4.00762177 122.428237,7.43125 C125.847508,10.8951562 127.557118,14.9430324 127.557118,19.575 L127.557118,20.0583333 Z M156.459871,36.3708333 L156.459871,81.4416667 C156.459871,82.6097281 156.037497,83.5965237 155.192736,84.4020833 C154.388201,85.2479209 153.382549,85.6708333 152.175747,85.6708333 C151.009172,85.6708333 150.023632,85.2479209 149.219098,84.4020833 C148.374337,83.5965237 147.951963,82.6097281 147.951963,81.4416667 L147.951963,36.3708333 C147.951963,35.162494 148.374337,34.1555596 149.219098,33.35 C150.023632,32.5041624 151.009172,32.08125 152.175747,32.08125 C153.382549,32.08125 154.388201,32.5041624 155.192736,33.35 C156.037497,34.1555596 156.459871,35.162494 156.459871,36.3708333 Z M152.175747,15.1041667 C153.583682,15.1041667 154.770353,15.5874952 155.735794,16.5541667 C156.701235,17.5208382 157.183948,18.7090207 157.183948,20.11875 C157.183948,21.4882013 156.701235,22.6562452 155.735794,23.6229167 C154.770353,24.5895882 153.583682,25.0729167 152.175747,25.0729167 C150.767812,25.0729167 149.601254,24.5895882 148.67604,23.6229167 C147.710599,22.6562452 147.227885,21.4882013 147.227885,20.11875 C147.227885,18.7090207 147.710599,17.5208382 148.67604,16.5541667 C149.601254,15.5874952 150.767812,15.1041667 152.175747,15.1041667 Z M204.611013,50.9916667 L204.611013,81.4416667 C204.611013,82.6097281 204.188639,83.5965237 203.343878,84.4020833 C202.539344,85.2479209 201.533691,85.6708333 200.326889,85.6708333 C199.160314,85.6708333 198.174775,85.2479209 197.37024,84.4020833 C196.525479,83.5965237 196.103105,82.6097281 196.103105,81.4416667 L196.103105,50.9916667 C196.103105,47.9305402 195.017,45.3125109 192.844757,43.1375 C190.712741,41.0027671 188.118156,39.9354167 185.060926,39.9354167 C182.003695,39.9354167 179.388997,41.0027671 177.216755,43.1375 C175.084738,45.3125109 174.018746,47.9305402 174.018746,50.9916667 L174.018746,81.4416667 C174.018746,82.6097281 173.596372,83.5965237 172.751611,84.4020833 C171.947077,85.2479209 170.941424,85.6708333 169.734622,85.6708333 C168.568047,85.6708333 167.582507,85.2479209 166.777973,84.4020833 C165.933212,83.5965237 165.510838,82.6097281 165.510838,81.4416667 L165.510838,50.9916667 C165.510838,45.5944175 167.421578,40.982658 171.243117,37.15625 C175.064655,33.329842 179.670545,31.4166667 185.060926,31.4166667 C190.451306,31.4166667 195.057196,33.329842 198.878735,37.15625 C202.700273,40.982658 204.611013,45.5944175 204.611013,50.9916667 Z M222.169889,66.2166667 L222.169889,68.3916667 C222.169889,70.8083454 223.155429,72.8826302 225.126538,74.6145833 C227.097647,76.3062585 229.470988,77.1520833 232.246632,77.1520833 L242.323374,77.1520833 L242.323374,66.2166667 C242.323374,63.7999879 241.337834,61.7257031 239.366725,59.99375 C237.395616,58.2617969 235.022275,57.3958333 232.246632,57.3958333 C229.470988,57.3958333 227.097647,58.2617969 225.126538,59.99375 C223.155429,61.7257031 222.169889,63.7999879 222.169889,66.2166667 Z M221.385472,34.1958333 C225.005876,32.1819344 228.827357,31.175 232.850029,31.175 C238.642677,31.175 243.087663,32.6652629 246.18512,35.6458333 C249.282577,38.6666818 250.831283,42.9964996 250.831283,48.6354167 L250.831283,81.4416667 C250.831283,82.6097281 250.408909,83.5965237 249.564148,84.4020833 C248.759613,85.2479209 247.75396,85.6708333 246.547159,85.6708333 L232.246632,85.6708333 C227.137838,85.6708333 222.753192,83.9791836 219.09256,80.5958333 C215.472155,77.2124831 213.66198,73.1444682 213.66198,68.3916667 L213.66198,66.2166667 C213.66198,61.4235871 215.472155,57.3354336 219.09256,53.9520833 C222.753192,50.6090111 227.137838,48.9375 232.246632,48.9375 C235.907263,48.9375 239.266144,49.8638796 242.323374,51.7166667 L242.323374,48.6354167 C242.323374,45.3326224 241.619417,43.0166733 240.211482,41.6875 C238.803547,40.3180487 236.349754,39.6333333 232.850029,39.6333333 C230.355973,39.6333333 227.962519,40.2777713 225.669596,41.5666667 C224.945515,41.9291685 224.281784,42.3520809 223.678383,42.8354167 C223.47725,42.9965286 223.296232,43.1374994 223.135325,43.2583333 L222.954306,43.4395833 C222.149771,44.2854209 221.164232,44.7083333 219.997657,44.7083333 C218.831082,44.7083333 217.825429,44.3055596 216.980668,43.5 C216.135907,42.6541624 215.713533,41.6472281 215.713533,40.4791667 C215.713533,39.3111053 216.115794,38.3041709 216.920328,37.4583333 L217.282367,37.0958333 C217.563954,36.8541655 217.86565,36.6125012 218.187463,36.3708333 C219.152905,35.5652738 220.218897,34.840281 221.385472,34.1958333 Z M268.390158,50.9916667 L268.390158,81.3208333 C268.390158,82.4888947 267.967784,83.4958291 267.123023,84.3416667 C266.318488,85.1875042 265.312836,85.6104167 264.106034,85.6104167 C262.939459,85.6104167 261.953919,85.1875042 261.149385,84.3416667 C260.304624,83.4958291 259.88225,82.4888947 259.88225,81.3208333 L259.88225,50.9916667 C259.88225,45.5944175 261.79299,40.982658 265.614528,37.15625 C269.436067,33.329842 274.041957,31.4166667 279.432337,31.4166667 C283.133196,31.4166667 286.552415,32.3833237 289.6901,34.3166667 C292.787557,36.2500097 295.181011,38.868039 296.870533,42.1708333 C297.39348,43.2180608 297.473933,44.2854112 297.111892,45.3729167 C296.749852,46.5007001 296.045895,47.3263863 295,47.85 C293.954105,48.4138917 292.868,48.4944465 291.741652,48.0916667 C290.615304,47.7291649 289.790669,47.0243108 289.267721,45.9770833 C288.342507,44.1242963 286.994932,42.6541721 285.224956,41.5666667 C283.45498,40.4791612 281.524127,39.9354167 279.432337,39.9354167 C276.375107,39.9354167 273.760409,41.0027671 271.588166,43.1375 C269.45615,45.3125109 268.390158,47.9305402 268.390158,50.9916667 Z M314.00703,7.31041667 C318.874463,2.43678119 324.747476,0 331.626245,0 C338.505014,0 344.378027,2.43678119 349.24546,7.31041667 C354.112893,12.1840521 356.546573,18.0645489 356.546573,24.9520833 L356.546573,26.0395833 C356.546573,27.2076447 356.144312,28.1944404 355.339777,29 C354.495016,29.8458376 353.489363,30.26875 352.322789,30.26875 C351.156214,30.26875 350.150561,29.8458376 349.3058,29 C348.461039,28.1944404 348.038664,27.2076447 348.038664,26.0395833 L348.038664,24.9520833 C348.038664,20.4409497 346.449733,16.5743217 343.271822,13.3520833 C340.053684,10.129845 336.171864,8.51875 331.626245,8.51875 C327.120852,8.51875 323.259145,10.129845 320.041008,13.3520833 C316.82287,16.5743217 315.213825,20.4409497 315.213825,24.9520833 L315.213825,62.0479167 C315.213825,66.5993283 316.82287,70.486095 320.041008,73.7083333 C323.259145,76.9305717 327.120852,78.5416667 331.626245,78.5416667 C336.171864,78.5416667 340.053684,76.9305717 343.271822,73.7083333 C346.449733,70.486095 348.038664,66.5993283 348.038664,62.0479167 L348.038664,61.0208333 C348.038664,59.8527719 348.461039,58.8458376 349.3058,58 C350.150561,57.1541624 351.156214,56.73125 352.322789,56.73125 C353.489363,56.73125 354.495016,57.1541624 355.339777,58 C356.144312,58.8458376 356.546573,59.8527719 356.546573,61.0208333 L356.546573,62.0479167 C356.546573,68.9354511 354.112893,74.8159479 349.24546,79.6895833 C344.378027,84.5632188 338.505014,87 331.626245,87 C324.747476,87 318.874463,84.5632188 314.00703,79.6895833 C309.139597,74.8159479 306.705917,68.9354511 306.705917,62.0479167 L306.705917,24.9520833 C306.705917,18.0645489 309.139597,12.1840521 314.00703,7.31041667 Z M396.189807,66.7 L396.189807,50.93125 C396.189807,47.8701236 395.103702,45.2520942 392.931459,43.0770833 C390.799443,40.9020725 388.204858,39.8145833 385.147627,39.8145833 C382.090397,39.8145833 379.475699,40.9020725 377.303456,43.0770833 C375.17144,45.2520942 374.105448,47.8701236 374.105448,50.93125 L374.105448,66.7 C374.105448,69.7611264 375.17144,72.3791558 377.303456,74.5541667 C379.475699,76.6888996 382.090397,77.75625 385.147627,77.75625 C388.204858,77.75625 390.799443,76.6888996 392.931459,74.5541667 C395.103702,72.3791558 396.189807,69.7611264 396.189807,66.7 Z M371.329818,37.0958333 C375.151357,33.2694253 379.757247,31.35625 385.147627,31.35625 C390.538008,31.35625 395.143898,33.2694253 398.965436,37.0958333 C402.786975,40.9222414 404.697715,45.5340008 404.697715,50.93125 L404.697715,66.7 C404.697715,72.0972492 402.786975,76.7090086 398.965436,80.5354167 C395.143898,84.3618247 390.538008,86.275 385.147627,86.275 C379.757247,86.275 375.151357,84.3618247 371.329818,80.5354167 C367.50828,76.7090086 365.59754,72.0972492 365.59754,66.7 L365.59754,50.93125 C365.59754,45.5340008 367.50828,40.9222414 371.329818,37.0958333 Z M422.196251,50.9916667 L422.196251,66.0958333 C422.196251,69.1569597 423.282356,71.7548504 425.454599,73.8895833 C427.586615,76.0645942 430.181199,77.1520833 433.23843,77.1520833 L444.280609,77.1520833 L444.280609,50.9916667 C444.280609,47.9305402 443.214617,45.3125109 441.082601,43.1375 C438.910358,41.0027671 436.295661,39.9354167 433.23843,39.9354167 C430.181199,39.9354167 427.586615,41.0027671 425.454599,43.1375 C423.282356,45.3125109 422.196251,47.9305402 422.196251,50.9916667 Z M444.280609,34.8604167 L444.280609,5.73958333 C444.280609,4.53124396 444.723097,3.52430958 445.608084,2.71875 C446.412619,1.87291244 447.418272,1.45 448.625073,1.45 C449.791648,1.45 450.777188,1.87291244 451.581722,2.71875 C452.426483,3.52430958 452.848858,4.53124396 452.848858,5.73958333 L452.848858,80.7770833 C452.848858,84.0395996 451.2197,85.6708333 447.961336,85.6708333 L433.23843,85.6708333 C427.84805,85.6708333 423.242159,83.757658 419.420621,79.93125 C415.599083,76.104842 413.688342,71.4930825 413.688342,66.0958333 L413.688342,50.9916667 C413.688342,45.5944175 415.599083,40.982658 419.420621,37.15625 C423.242159,33.329842 427.84805,31.4166667 433.23843,31.4166667 C437.261102,31.4166667 440.941792,32.5645719 444.280609,34.8604167 Z M470.407733,51.8375 L492.492091,51.8375 L492.492091,50.8708333 C492.492091,47.8097069 491.405986,45.1916775 489.233743,43.0166667 C487.101727,40.8416558 484.507143,39.7541667 481.449912,39.7541667 C478.392681,39.7541667 475.777984,40.8416558 473.605741,43.0166667 C471.473725,45.1916775 470.407733,47.8097069 470.407733,50.8708333 L470.407733,51.8375 Z M481.389572,86.275 L481.389572,86.2145833 C476.039419,86.2145833 471.453641,84.301408 467.632103,80.475 C463.810565,76.648592 461.899824,72.0368325 461.899824,66.6395833 L461.899824,50.8708333 C461.899824,45.4735841 463.810565,40.8618247 467.632103,37.0354167 C471.453641,33.2090086 476.059532,31.2958333 481.449912,31.2958333 C486.840293,31.2958333 491.446183,33.2090086 495.267721,37.0354167 C499.089259,40.8618247 501,45.4735841 501,50.8708333 L501,55.3416667 C501,58.6847389 499.270277,60.35625 495.810779,60.35625 L470.407733,60.35625 L470.407733,66.6395833 C470.407733,69.7007097 471.473725,72.3187391 473.605741,74.49375 C475.777984,76.5479269 478.392681,77.575 481.449912,77.575 L481.99297,77.575 C484.56748,77.575 486.820143,76.6888977 488.751025,74.9166667 C490.842815,73.0638796 492.049598,70.7277919 492.371412,67.9083333 C492.492092,67.1430517 493.015031,66.3777816 493.940246,65.6125 C494.825234,64.8874964 495.851,64.5854161 497.017575,64.70625 C498.18415,64.8270839 499.149576,65.3506898 499.913884,66.2770833 C500.637965,67.1631989 500.939661,67.9888851 500.818981,68.7541667 C500.296033,73.7486361 498.184162,77.9173444 494.483304,81.2604167 C490.742219,84.6034889 486.377686,86.275 481.389572,86.275 Z" id="BinarCode" fill="#021926"></path>
            </g>
        </g>
    </g>
</svg>